<?xml version="1.0" encoding="UTF-8" standalone="no"?>
<!DOCTYPE svg PUBLIC "-//W3C//DTD SVG 1.1//EN" "http://www.w3.org/Graphics/SVG/1.1/DTD/svg11.dtd">
<svg xmlns="http://www.w3.org/2000/svg" version="1.1" viewBox="0.00 0.00 1773.00 1773.00">
<path fill="#16272c" d="
  M 887.05 654.68
  Q 843.71 654.70 760.79 654.74
  A 1.98 1.97 18.0 0 0 759.20 655.54
  L 667.44 778.60
  A 1.28 1.27 17.9 0 1 666.41 779.12
  Q 565.05 779.25 557.25 779.25
  Q 554.59 779.25 553.57 777.86
  Q 533.02 750.02 513.48 723.46
  Q 513.02 722.84 513.48 722.22
  L 680.75 495.00
  A 1.82 1.81 18.2 0 1 682.24 494.25
  Q 686.43 494.26 690.25 494.23
  Q 691.63 494.22 887.00 494.15
  Q 1082.37 494.08 1083.74 494.09
  Q 1087.56 494.12 1091.75 494.11
  A 1.82 1.81 -18.2 0 1 1093.24 494.86
  L 1260.67 721.97
  Q 1261.13 722.59 1260.67 723.21
  Q 1241.15 749.78 1220.61 777.63
  Q 1219.60 779.02 1216.94 779.03
  Q 1209.14 779.03 1107.78 778.97
  A 1.28 1.27 -17.9 0 1 1106.75 778.45
  L 1014.90 655.45
  A 1.98 1.97 -18.1 0 0 1013.31 654.65
  Q 930.40 654.67 887.05 654.68
  Z
  M 640.56 725.70
  A 0.95 0.95 0.0 0 0 641.32 725.31
  L 732.45 601.52
  A 0.95 0.95 0.0 0 1 733.21 601.13
  L 831.50 601.13
  A 0.95 0.95 0.0 0 0 832.26 600.74
  L 870.48 548.83
  A 0.95 0.95 0.0 0 0 869.71 547.32
  L 708.83 547.32
  A 0.95 0.95 0.0 0 0 708.07 547.71
  L 578.16 724.19
  A 0.95 0.95 0.0 0 0 578.93 725.70
  L 640.56 725.70
  Z
  M 1041.16 601.82
  L 1133.78 725.67
  Q 1134.06 726.04 1134.52 726.04
  Q 1162.55 726.08 1195.32 726.03
  Q 1195.91 726.03 1196.12 725.53
  A 0.77 0.77 0.0 0 0 1196.03 724.76
  L 1065.85 547.88
  Q 1065.44 547.32 1064.74 547.32
  L 936.86 547.32
  A 1.01 1.00 18.0 0 0 936.05 547.73
  Q 920.12 569.43 898.28 599.04
  Q 897.62 599.94 897.83 600.70
  A 0.60 0.60 0.0 0 0 898.41 601.14
  L 1039.80 601.14
  A 1.70 1.70 0.0 0 1 1041.16 601.82
  Z"
/>
<path fill="#16272c" d="
  M 887.09 885.13
  Q 826.05 885.22 765.20 885.14
  A 1.93 1.91 -17.9 0 1 763.67 884.36
  L 706.44 806.60
  A 0.62 0.62 0.0 0 1 706.45 805.86
  Q 752.44 743.98 762.14 730.90
  Q 763.74 728.74 766.50 728.75
  Q 792.24 728.87 886.84 728.72
  Q 981.45 728.58 1007.19 728.38
  Q 1009.95 728.36 1011.55 730.51
  Q 1021.29 743.56 1067.47 805.30
  A 0.62 0.62 0.0 0 1 1067.49 806.04
  L 1010.50 883.98
  A 1.93 1.91 17.8 0 1 1008.97 884.76
  Q 948.12 885.03 887.09 885.13
  Z
  M 886.73 831.97
  Q 965.87 832.01 982.80 831.91
  A 2.85 2.83 -71.8 0 0 985.07 830.75
  L 1002.45 807.45
  A 1.21 1.21 0.0 0 0 1002.45 806.01
  L 984.90 782.55
  A 2.29 2.28 -18.0 0 0 983.11 781.64
  C 961.82 781.37 934.56 781.44 886.76 781.41
  C 838.97 781.38 811.70 781.28 790.41 781.53
  A 2.29 2.28 18.0 0 0 788.62 782.43
  L 771.04 805.87
  A 1.21 1.21 0.0 0 0 771.04 807.31
  L 788.40 830.63
  A 2.85 2.83 71.8 0 0 790.67 831.79
  Q 807.59 831.92 886.73 831.97
  Z"
/>
<path fill="#16272c" d="
  M 887.10 960.60
  Q 964.56 960.61 1012.34 960.35
  A 2.66 2.65 18.1 0 0 1014.46 959.28
  L 1106.67 835.61
  A 2.01 2.00 18.2 0 1 1108.28 834.80
  L 1217.51 834.80
  A 1.84 1.84 0.0 0 1 1218.99 835.55
  L 1261.01 891.73
  A 0.47 0.47 0.0 0 1 1261.01 892.29
  L 1092.34 1121.42
  A 0.84 0.81 -70.9 0 1 1091.69 1121.75
  Q 932.26 1122.11 887.08 1122.11
  Q 841.90 1122.10 682.47 1121.69
  A 0.84 0.81 70.9 0 1 681.82 1121.36
  L 513.21 892.19
  A 0.47 0.47 0.0 0 1 513.21 891.63
  L 555.25 835.46
  A 1.84 1.84 0.0 0 1 556.73 834.71
  L 665.96 834.74
  A 2.01 2.00 -18.2 0 1 667.57 835.55
  L 759.74 959.24
  A 2.66 2.65 -18.0 0 0 761.87 960.32
  Q 809.64 960.59 887.10 960.60
  Z
  M 826.11 1015.43
  A 0.81 0.81 0.0 0 0 825.46 1014.14
  L 733.82 1014.14
  A 0.81 0.81 0.0 0 1 733.17 1013.81
  L 640.85 888.40
  A 0.81 0.81 0.0 0 0 640.20 888.07
  L 578.51 888.07
  A 0.81 0.81 0.0 0 0 577.86 889.36
  L 709.17 1067.77
  A 0.81 0.81 0.0 0 0 709.82 1068.10
  L 786.93 1068.10
  A 0.81 0.81 0.0 0 0 787.58 1067.77
  L 826.11 1015.43
  Z
  M 1040.33 1014.18
  L 892.93 1014.18
  A 1.03 1.03 0.0 0 0 892.10 1014.60
  L 853.29 1067.31
  A 0.67 0.67 0.0 0 0 853.83 1068.38
  L 1064.28 1068.38
  A 1.17 1.15 -71.1 0 0 1065.20 1067.92
  Q 1196.57 889.42 1196.90 888.96
  Q 1197.21 888.52 1196.77 888.18
  A 0.58 0.56 -26.0 0 0 1196.43 888.07
  L 1134.23 888.07
  Q 1133.64 888.07 1133.28 888.55
  L 1041.08 1013.80
  Q 1040.80 1014.18 1040.33 1014.18
  Z"
/>
<path fill="#0a0a0a" d="
  M 509.61 1218.09
  Q 513.32 1218.08 517.43 1218.36
  A 1.39 1.38 -10.1 0 1 518.61 1219.17
  L 543.46 1273.90
  Q 544.03 1275.16 542.65 1275.16
  L 527.76 1275.16
  A 1.13 1.12 78.6 0 1 526.72 1274.46
  Q 519.02 1255.53 510.40 1236.90
  Q 510.17 1236.39 509.68 1236.39
  Q 509.19 1236.40 508.96 1236.90
  Q 500.48 1255.60 492.92 1274.59
  A 1.13 1.12 -79.1 0 1 491.88 1275.29
  L 476.99 1275.40
  Q 475.61 1275.41 476.17 1274.15
  L 500.62 1219.24
  A 1.39 1.38 9.7 0 1 501.79 1218.41
  Q 505.90 1218.10 509.61 1218.09
  Z"
/>
<path fill="#0a0a0a" d="
  M 777.8461 1261.8263
  A 13.21 13.21 0.0 0 1 764.7286 1275.1283
  L 730.0495 1275.3704
  A 13.21 13.21 0.0 0 1 716.7476 1262.2529
  L 716.5339 1231.6537
  A 13.21 13.21 0.0 0 1 729.6514 1218.3517
  L 764.3305 1218.1096
  A 13.21 13.21 0.0 0 1 777.6324 1231.2271
  L 777.8461 1261.8263
  Z
  M 762.9740 1234.2159
  A 2.28 2.28 0.0 0 0 760.7019 1231.9280
  L 733.2621 1231.8322
  A 2.28 2.28 0.0 0 0 730.9741 1234.1042
  L 730.8860 1259.3441
  A 2.28 2.28 0.0 0 0 733.1581 1261.6320
  L 760.5979 1261.7278
  A 2.28 2.28 0.0 0 0 762.8859 1259.4558
  L 762.9740 1234.2159
  Z"
/>
<path fill="#0a0a0a" d="
  M 969.76 1246.04
  A 0.89 0.88 45.2 0 0 971.06 1246.05
  L 995.32 1219.86
  Q 997.71 1217.28 1000.84 1218.88
  L 1001.16 1219.04
  Q 1004.16 1220.58 1001.86 1223.05
  L 974.54 1252.54
  A 2.50 2.49 -23.6 0 0 973.87 1254.24
  L 973.87 1272.72
  Q 973.87 1275.26 971.33 1275.26
  L 969.34 1275.26
  Q 966.63 1275.26 966.63 1272.56
  L 966.63 1255.50
  A 5.31 5.27 23.9 0 0 965.24 1251.93
  L 939.55 1223.89
  Q 937.14 1221.26 940.15 1219.35
  L 940.47 1219.15
  Q 943.41 1217.28 945.75 1219.84
  L 969.76 1246.04
  Z"
/>
<path fill="#0a0a0a" d="
  M 451.05 1254.79
  Q 451.05 1253.80 450.08 1253.80
  L 434.23 1253.80
  A 1.35 1.35 0.0 0 1 432.88 1252.45
  L 432.88 1242.54
  A 1.32 1.32 0.0 0 1 434.20 1241.22
  L 464.26 1241.22
  A 0.87 0.87 0.0 0 1 465.13 1242.08
  Q 465.27 1259.11 465.27 1263.97
  Q 465.27 1267.39 463.11 1270.09
  C 459.40 1274.74 455.18 1275.46 448.88 1275.44
  Q 429.85 1275.39 424.43 1275.34
  Q 418.90 1275.29 416.79 1274.93
  Q 406.02 1273.06 405.80 1261.75
  Q 405.60 1251.50 405.70 1229.01
  C 405.72 1222.68 413.06 1218.52 418.54 1218.46
  Q 432.13 1218.32 464.32 1218.46
  Q 464.82 1218.46 464.82 1218.97
  L 464.82 1230.95
  A 0.52 0.52 0.0 0 1 464.30 1231.47
  L 421.49 1231.47
  A 1.61 1.61 0.0 0 0 419.88 1233.08
  L 419.88 1259.72
  A 2.34 2.34 0.0 0 0 422.22 1262.06
  L 450.23 1262.06
  A 0.82 0.82 0.0 0 0 451.05 1261.24
  L 451.05 1254.79
  Z"
/>
<path fill="#0a0a0a" d="
  M 572.71 1246.27
  Q 572.31 1246.40 572.30 1247.02
  Q 572.24 1254.21 572.23 1274.80
  A 0.60 0.60 0.0 0 1 571.63 1275.40
  L 557.82 1275.40
  A 0.47 0.47 0.0 0 1 557.35 1274.93
  L 557.35 1219.01
  A 0.63 0.63 0.0 0 1 557.98 1218.38
  L 570.23 1218.38
  A 0.84 0.83 73.1 0 1 570.93 1218.76
  L 590.60 1248.42
  Q 591.27 1249.43 591.93 1248.42
  L 611.11 1218.96
  Q 611.46 1218.42 612.11 1218.42
  L 624.66 1218.42
  A 0.74 0.73 -0.0 0 1 625.40 1219.15
  L 625.40 1274.34
  A 0.98 0.97 -0.0 0 1 624.42 1275.31
  L 611.34 1275.31
  A 0.72 0.72 0.0 0 1 610.62 1274.59
  L 610.61 1246.50
  A 0.78 0.66 -82.5 0 0 610.15 1245.78
  Q 610.05 1245.75 609.84 1245.82
  A 0.57 0.55 -81.8 0 0 609.54 1246.05
  L 597.96 1263.84
  A 1.52 1.51 -73.1 0 1 596.70 1264.52
  L 585.71 1264.52
  Q 585.12 1264.52 584.80 1264.03
  L 573.12 1246.42
  A 0.36 0.36 0.0 0 0 572.71 1246.27
  Z"
/>
<path fill="#0a0a0a" d="
  M 699.42 1248.52
  Q 699.64 1249.14 701.04 1253.01
  C 703.66 1260.20 702.08 1271.31 694.17 1274.39
  Q 691.59 1275.40 683.93 1275.41
  Q 665.17 1275.43 641.95 1275.35
  Q 640.65 1275.35 640.65 1274.04
  L 640.65 1219.25
  A 0.80 0.80 0.0 0 1 641.44 1218.45
  Q 665.28 1218.30 688.52 1218.45
  C 692.74 1218.48 698.09 1220.08 700.38 1224.05
  Q 701.54 1226.05 701.92 1230.71
  C 702.36 1236.03 702.90 1242.96 699.46 1247.57
  Q 699.21 1247.91 699.42 1248.52
  Z
  M 688.1129 1232.6278
  A 1.25 1.25 0.0 0 0 686.8673 1231.3734
  L 656.2675 1231.2666
  A 1.25 1.25 0.0 0 0 655.0131 1232.5123
  L 654.9871 1239.9722
  A 1.25 1.25 0.0 0 0 656.2327 1241.2266
  L 686.8325 1241.3334
  A 1.25 1.25 0.0 0 0 688.0869 1240.0877
  L 688.1129 1232.6278
  Z
  M 688.1730 1254.2112
  A 0.93 0.93 0.0 0 0 687.2414 1253.2828
  L 656.0815 1253.3372
  A 0.93 0.93 0.0 0 0 655.1531 1254.2688
  L 655.1670 1262.2088
  A 0.93 0.93 0.0 0 0 656.0986 1263.1372
  L 687.2585 1263.0828
  A 0.93 0.93 0.0 0 0 688.1869 1262.1512
  L 688.1730 1254.2112
  Z"
/>
<path fill="#0a0a0a" d="
  M 823.55 1218.43
  Q 827.39 1218.42 830.83 1218.58
  A 1.65 1.63 -10.6 0 1 832.25 1219.54
  L 857.41 1274.95
  A 0.30 0.29 -12.6 0 1 857.14 1275.37
  L 841.51 1275.37
  Q 841.03 1275.37 840.84 1274.92
  Q 832.62 1255.15 825.19 1237.80
  Q 824.50 1236.19 823.59 1236.19
  Q 822.68 1236.19 822.00 1237.80
  Q 814.65 1255.19 806.52 1275.00
  Q 806.33 1275.45 805.85 1275.45
  L 790.22 1275.52
  A 0.30 0.29 12.3 0 1 789.95 1275.10
  L 814.86 1219.58
  A 1.65 1.63 10.3 0 1 816.28 1218.61
  Q 819.72 1218.44 823.55 1218.43
  Z"
/>
<path fill="#0a0a0a" d="
  M 919.79 1251.72
  Q 919.10 1251.00 916.83 1250.98
  Q 884.90 1250.63 883.42 1250.52
  Q 877.02 1250.13 873.24 1243.33
  Q 871.16 1239.60 871.22 1233.93
  C 871.30 1226.92 874.33 1221.37 880.90 1219.25
  Q 883.39 1218.43 889.64 1218.46
  Q 908.30 1218.54 924.40 1218.47
  Q 928.05 1218.46 928.15 1222.16
  Q 928.15 1222.28 928.15 1222.31
  Q 928.19 1225.93 924.51 1225.97
  Q 913.82 1226.10 885.59 1226.12
  C 878.36 1226.13 877.13 1232.13 878.53 1237.99
  C 879.59 1242.43 883.51 1243.43 887.88 1243.35
  Q 901.16 1243.12 914.66 1243.21
  Q 927.00 1243.29 928.88 1254.78
  C 929.97 1261.52 928.87 1270.19 922.38 1273.54
  Q 919.49 1275.05 912.27 1275.09
  Q 893.82 1275.20 874.76 1275.31
  Q 871.21 1275.32 871.11 1271.70
  Q 871.11 1271.58 871.11 1271.56
  Q 871.02 1267.98 874.68 1267.98
  Q 892.44 1267.98 914.17 1268.08
  Q 917.99 1268.10 919.69 1266.91
  C 922.29 1265.08 922.41 1262.13 922.52 1259.08
  Q 922.68 1254.80 919.79 1251.72
  Z"
/>
<path fill="#0a0a0a" d="
  M 1024.02 1226.31
  C 1017.25 1226.44 1016.94 1235.23 1019.16 1239.20
  C 1021.21 1242.87 1025.09 1243.58 1029.68 1243.47
  Q 1031.48 1243.42 1054.05 1243.37
  Q 1059.55 1243.35 1062.12 1244.39
  C 1069.79 1247.50 1071.80 1257.10 1070.21 1264.52
  Q 1067.87 1275.47 1056.52 1275.44
  Q 1033.38 1275.39 1015.40 1275.49
  Q 1011.76 1275.51 1011.49 1271.95
  Q 1011.48 1271.83 1011.47 1271.74
  Q 1011.08 1268.16 1014.74 1268.17
  Q 1035.84 1268.28 1059.00 1268.31
  C 1060.67 1268.32 1062.65 1266.19 1063.06 1264.41
  C 1064.49 1258.22 1063.71 1250.65 1055.86 1250.73
  Q 1032.98 1250.99 1025.52 1250.86
  Q 1022.22 1250.80 1018.99 1249.19
  Q 1016.10 1247.74 1014.26 1244.58
  C 1009.50 1236.40 1010.23 1223.34 1020.35 1219.40
  Q 1022.77 1218.46 1029.28 1218.54
  Q 1036.14 1218.63 1064.47 1218.50
  Q 1067.97 1218.48 1068.58 1222.45
  Q 1068.59 1222.53 1068.58 1222.60
  Q 1068.00 1226.09 1064.75 1226.08
  Q 1038.54 1226.04 1024.02 1226.31
  Z"
/>
<path fill="#0a0a0a" d="
  M 1113.91 1275.28
  L 1110.00 1275.28
  A 1.60 1.60 0.0 0 1 1108.40 1273.68
  L 1108.40 1227.45
  A 1.60 1.60 0.0 0 0 1106.80 1225.85
  L 1079.72 1225.85
  A 1.60 1.60 0.0 0 1 1078.14 1224.47
  L 1077.55 1220.25
  A 1.60 1.60 0.0 0 1 1079.14 1218.43
  L 1141.63 1218.43
  A 1.60 1.60 0.0 0 1 1143.21 1219.81
  L 1143.80 1224.03
  A 1.60 1.60 0.0 0 1 1142.21 1225.85
  L 1117.11 1225.85
  A 1.60 1.60 0.0 0 0 1115.51 1227.45
  L 1115.51 1273.68
  A 1.60 1.60 0.0 0 1 1113.91 1275.28
  Z"
/>
<path fill="#0a0a0a" d="
  M 1161.23 1243.34
  A 0.59 0.58 -6.9 0 0 1161.80 1243.78
  L 1201.18 1243.78
  Q 1204.08 1243.78 1204.08 1246.69
  L 1204.08 1248.00
  Q 1204.08 1250.90 1201.18 1250.90
  Q 1179.65 1250.89 1165.01 1250.91
  C 1160.33 1250.92 1160.20 1253.53 1160.78 1257.35
  C 1161.34 1261.07 1160.94 1267.81 1167.27 1267.84
  Q 1197.46 1267.97 1208.24 1267.93
  Q 1212.05 1267.91 1211.88 1271.60
  Q 1211.87 1271.80 1211.87 1271.84
  Q 1211.87 1275.53 1208.12 1275.48
  Q 1196.73 1275.33 1171.81 1275.30
  C 1164.98 1275.29 1158.21 1274.39 1155.36 1267.75
  Q 1154.12 1264.86 1154.09 1256.07
  Q 1154.04 1240.93 1154.03 1236.68
  Q 1154.00 1229.21 1155.47 1225.99
  Q 1158.90 1218.47 1169.01 1218.49
  Q 1194.62 1218.54 1208.50 1218.45
  Q 1212.28 1218.42 1212.12 1222.24
  Q 1212.12 1222.29 1212.12 1222.40
  Q 1212.04 1226.19 1208.10 1226.22
  Q 1187.52 1226.41 1170.49 1226.13
  Q 1166.18 1226.06 1164.64 1226.79
  C 1159.22 1229.37 1160.00 1238.51 1161.23 1243.34
  Z"
/>
<path fill="#0a0a0a" d="
  M 1260.37 1250.11
  Q 1260.80 1250.10 1261.50 1249.25
  Q 1273.31 1234.85 1283.34 1221.60
  C 1285.62 1218.58 1290.63 1216.84 1293.34 1220.17
  Q 1294.20 1221.24 1294.20 1224.12
  Q 1294.15 1257.43 1294.17 1272.69
  Q 1294.17 1275.40 1291.46 1275.40
  L 1289.73 1275.40
  Q 1286.79 1275.40 1286.79 1272.46
  L 1286.79 1231.05
  Q 1286.79 1229.63 1285.86 1230.71
  Q 1275.33 1243.03 1265.39 1256.37
  Q 1263.38 1259.08 1260.39 1259.09
  Q 1257.40 1259.09 1255.37 1256.40
  Q 1245.37 1243.10 1234.78 1230.83
  Q 1233.84 1229.76 1233.85 1231.18
  L 1234.05 1272.59
  Q 1234.07 1275.53 1231.13 1275.54
  L 1229.40 1275.55
  Q 1226.69 1275.56 1226.67 1272.85
  Q 1226.62 1257.59 1226.41 1224.29
  Q 1226.39 1221.41 1227.25 1220.33
  C 1229.94 1216.99 1234.96 1218.70 1237.25 1221.71
  Q 1247.35 1234.91 1259.23 1249.26
  Q 1259.93 1250.11 1260.37 1250.11
  Z"
/>
<path fill="#0a0a0a" d="
  M 1358.97 1251.83
  Q 1358.28 1251.11 1356.00 1251.09
  Q 1323.98 1250.78 1322.49 1250.68
  Q 1316.07 1250.29 1312.27 1243.48
  Q 1310.18 1239.74 1310.23 1234.05
  C 1310.30 1227.02 1313.34 1221.45 1319.92 1219.31
  Q 1322.42 1218.49 1328.69 1218.51
  Q 1347.40 1218.57 1363.55 1218.48
  Q 1367.22 1218.46 1367.32 1222.17
  Q 1367.32 1222.29 1367.32 1222.32
  Q 1367.37 1225.95 1363.67 1226.00
  Q 1352.95 1226.14 1324.64 1226.20
  C 1317.38 1226.22 1316.16 1232.24 1317.57 1238.11
  C 1318.64 1242.57 1322.57 1243.56 1326.95 1243.48
  Q 1340.27 1243.23 1353.82 1243.30
  Q 1366.19 1243.37 1368.09 1254.89
  C 1369.20 1261.65 1368.10 1270.35 1361.60 1273.72
  Q 1358.70 1275.23 1351.46 1275.28
  Q 1332.95 1275.42 1313.84 1275.55
  Q 1310.28 1275.57 1310.17 1271.94
  Q 1310.17 1271.82 1310.17 1271.80
  Q 1310.08 1268.20 1313.75 1268.20
  Q 1331.56 1268.18 1353.36 1268.25
  Q 1357.19 1268.26 1358.89 1267.07
  C 1361.50 1265.23 1361.61 1262.27 1361.72 1259.21
  Q 1361.88 1254.92 1358.97 1251.83
  Z"
/>
</svg>
